<!-- icons/rock.svg -->
<svg xmlns="http://www.w3.org/2000/svg" viewBox="0 0 128 128">
  <defs>
    <linearGradient id="g" x1="0" y1="0" x2="1" y2="1">
      <stop offset="0" stop-color="#9aa0a6"></stop>
      <stop offset="1" stop-color="#6b7280"></stop>
    </linearGradient>
  </defs>
  <path d="M20 78 34 40q4-10 16-14l20-6q10-3 18 4l12 11q6 6 7 15l2 17q2 12-7 20l-16 13q-7 6-17 6H54q-10 0-18-6L22 92q-6-5-2-14Z" fill="url(#g)" stroke="#42464d" stroke-width="4" stroke-linejoin="round"></path>
  <path d="M50 34l10 10m12-6 8 10m-36 6 12 8m28 2-10 10" stroke="#2f3338" stroke-opacity=".35" stroke-width="4" stroke-linecap="round"></path>
</svg>
